<?xml version="1.0" encoding="utf-8"?>
<!-- Generator: Adobe Illustrator 26.2.1, SVG Export Plug-In . SVG Version: 6.00 Build 0)  -->
<svg version="1.1" id="Calque_1" xmlns="http://www.w3.org/2000/svg" xmlns:xlink="http://www.w3.org/1999/xlink" x="0px" y="0px"
	 viewBox="0 0 841.89 850.39" style="enable-background:new 0 0 841.89 850.39;" xml:space="preserve">
<style type="text/css">
	.st0{fill:#0D71B9;stroke:#0D71B9;stroke-width:19.8855;stroke-miterlimit:10;}
	.st1{fill:#0D71B9;}
	.st2{fill:none;stroke:#35AE73;stroke-width:3.3006;stroke-miterlimit:10;}
	.st3{fill:none;stroke:#0D71B9;stroke-width:3.3006;stroke-miterlimit:10;}
	.st4{fill:#35AE73;}
	.st5{fill:none;stroke:#35AE73;stroke-width:1.1002;stroke-miterlimit:10;}
	.st6{fill:none;stroke:#0D71B9;stroke-width:1.1002;stroke-miterlimit:10;}
	.st7{fill:#1F3C7E;}
</style>
<path class="st0" d="M409.58,36.08c-160.92,0-291.36,130.45-291.36,291.36S248.66,618.8,409.58,618.8s291.36-130.45,291.36-291.36
	S570.49,36.08,409.58,36.08z M411.47,579.45c-139.84,0-253.21-113.37-253.21-253.21S271.62,73.03,411.47,73.03
	s253.21,113.37,253.21,253.21S551.31,579.45,411.47,579.45z"/>
<path class="st1" d="M654.85,295.14c-1.28-10.28-3.19-20.36-5.71-30.2c-2.08-8.19-4.58-16.19-7.47-24.02
	c-0.86-2.33-1.76-4.65-2.7-6.95c-4.35-10.77-9.45-21.16-15.23-31.1c-1.64-2.82-3.32-5.59-5.07-8.33
	c-4.82-7.58-10.04-14.87-15.66-21.86c-2.37-2.96-4.82-5.87-7.34-8.72c-6.74-7.67-13.98-14.91-21.64-21.67
	c-0.45-0.4-0.9-0.79-1.35-1.18c-7.29-6.36-14.97-12.29-22.99-17.76c-5.91-4.03-12.01-7.81-18.29-11.31
	c-1.55-0.88-3.12-1.74-4.71-2.57c-7.45-3.95-15.12-7.54-22.99-10.7c-7.48-3.04-15.16-5.7-22.99-7.98
	c-7.51-2.19-15.19-4.04-22.99-5.5c-7.55-1.43-15.22-2.5-22.99-3.21c-0.88-0.08-1.76-0.15-2.65-0.22h-39.78
	c-1.19,0.09-2.38,0.2-3.55,0.31c-7.78,0.74-15.45,1.84-22.99,3.3c-7.8,1.5-15.48,3.37-22.99,5.59c-7.83,2.31-15.51,5.02-22.99,8.08
	c-7.88,3.21-15.56,6.83-22.99,10.83c-1.28,0.68-2.55,1.38-3.81,2.09c-6.59,3.69-12.99,7.67-19.19,11.94
	c-8.03,5.51-15.7,11.5-22.99,17.91v0.4h-0.45c-8,7.06-15.53,14.64-22.54,22.7c-2.2,2.52-4.35,5.09-6.44,7.7
	c-5.96,7.43-11.5,15.19-16.56,23.29c-1.43,2.28-2.82,4.58-4.17,6.9c-5.78,9.95-10.88,20.33-15.23,31.1
	c-1.27,3.11-2.46,6.27-3.6,9.45c-2.52,7.03-4.71,14.2-6.57,21.52c-2.52,9.84-4.43,19.92-5.71,30.2c-1.24,9.98-1.88,20.14-1.88,30.46
	v0.04c0,10.57,0.67,20.98,1.98,31.2c1.31,10.28,3.26,20.35,5.81,30.19c1.82,7.04,3.94,13.96,6.37,20.75
	c1.14,3.21,2.35,6.39,3.63,9.54c4.3,10.65,9.34,20.91,15.05,30.75c1.4,2.42,2.84,4.81,4.31,7.16c5.01,8,10.47,15.69,16.35,23.03
	c2.16,2.71,4.37,5.36,6.65,7.95c7.04,8.09,14.61,15.7,22.65,22.8h0.34v0.31c7.29,6.41,14.96,12.4,22.99,17.91
	c6.65,4.58,13.52,8.82,20.63,12.73c0.78,0.44,1.57,0.87,2.37,1.29c7.44,3.99,15.12,7.61,22.99,10.83
	c7.48,3.07,15.16,5.77,22.99,8.08c7.51,2.22,15.19,4.09,22.99,5.59c7.55,1.46,15.22,2.56,22.99,3.3c7.57,0.73,15.24,1.1,22.99,1.11
	h0.45c7.6,0,15.12-0.35,22.54-1.02c7.78-0.72,15.45-1.78,22.99-3.21c7.8-1.46,15.48-3.3,22.99-5.5c7.83-2.28,15.51-4.94,22.99-7.98
	c7.88-3.17,15.55-6.76,22.99-10.7c1.1-0.58,2.19-1.17,3.27-1.77c6.78-3.73,13.36-7.77,19.73-12.11c8.02-5.46,15.7-11.39,22.99-17.75
	c0.42-0.35,0.83-0.72,1.24-1.09c7.7-6.8,14.97-14.07,21.75-21.77c2.6-2.93,5.12-5.92,7.55-8.98c5.53-6.9,10.68-14.1,15.45-21.6
	c1.79-2.83,3.54-5.69,5.21-8.59c5.71-9.84,10.75-20.1,15.05-30.75c0.95-2.33,1.86-4.69,2.73-7.05c2.81-7.58,5.24-15.33,7.27-23.24
	c2.55-9.84,4.5-19.91,5.81-30.19c1.31-10.22,1.98-20.63,1.98-31.2v-0.04C656.73,315.29,656.09,305.12,654.85,295.14z M625.98,325.87
	c0,10.52-0.76,20.87-2.23,30.98c-1.21,8.38-2.92,16.6-5.07,24.64c-0.51,1.86-1.02,3.71-1.57,5.54
	c-3.11,10.45-7.01,20.57-11.62,30.29c-2.97,6.28-6.25,12.4-9.8,18.32c-2.54,4.25-5.23,8.38-8.05,12.43
	c-4.62,6.62-9.6,12.98-14.94,19.03c-3.38,3.84-6.9,7.56-10.55,11.16c-3.99,3.93-8.14,7.71-12.44,11.32
	c-7.27,6.12-14.95,11.75-22.99,16.87c-1.36,0.87-2.75,1.73-4.14,2.56c-6.1,3.69-12.39,7.06-18.86,10.13
	c-7.44,3.53-15.12,6.65-22.99,9.32c-7.49,2.53-15.16,4.65-22.99,6.36c-7.53,1.63-15.19,2.87-22.99,3.69
	c-7.42,0.78-14.95,1.18-22.58,1.18h-0.42c-7.77-0.01-15.45-0.44-22.99-1.28c-7.8-0.84-15.47-2.11-22.99-3.78
	c-7.83-1.73-15.51-3.88-22.99-6.46c-7.89-2.7-15.56-5.85-22.99-9.42c-6.17-2.97-12.19-6.22-18.01-9.74
	c-1.67-1.01-3.33-2.05-4.98-3.1c-8.05-5.17-15.73-10.87-22.99-17.04c-3.99-3.39-7.87-6.93-11.6-10.61
	c-3.96-3.89-7.77-7.94-11.4-12.12c-5.02-5.75-9.73-11.79-14.1-18.07c-3.14-4.49-6.11-9.11-8.89-13.85
	c-3.23-5.48-6.23-11.11-8.97-16.9c-4.6-9.71-8.49-19.84-11.61-30.29c-0.87-2.92-1.68-5.85-2.42-8.82
	c-1.76-6.99-3.18-14.12-4.22-21.37c-1.47-10.11-2.23-20.46-2.23-30.98v-0.22c0.01-10.36,0.76-20.54,2.2-30.51
	c1.05-7.34,2.48-14.54,4.26-21.62c0.73-2.88,1.51-5.74,2.34-8.58c3.18-10.69,7.16-21.05,11.89-30.97
	c2.68-5.63,5.61-11.12,8.76-16.46c2.95-5.02,6.11-9.9,9.45-14.64c4.21-6,8.74-11.76,13.54-17.27c3.88-4.48,7.95-8.79,12.21-12.92
	c3.48-3.4,7.07-6.67,10.78-9.81c7.26-6.17,14.94-11.87,22.99-17.05c1.89-1.2,3.8-2.39,5.72-3.53c5.59-3.36,11.35-6.46,17.27-9.3
	c7.44-3.58,15.11-6.72,22.99-9.43c7.48-2.56,15.16-4.73,22.99-6.46c7.53-1.67,15.19-2.95,22.99-3.78
	c7.55-0.84,15.23-1.27,22.99-1.28h0.42c7.62,0,15.16,0.4,22.58,1.18c7.8,0.81,15.47,2.06,22.99,3.69c7.83,1.71,15.5,3.83,22.99,6.36
	c7.88,2.67,15.56,5.79,22.99,9.33c6.22,2.94,12.26,6.17,18.12,9.69c1.64,0.98,3.27,1.98,4.87,3c8.04,5.12,15.72,10.75,22.99,16.87
	c4,3.37,7.89,6.88,11.63,10.53c3.95,3.83,7.73,7.82,11.36,11.95c5.12,5.81,9.92,11.89,14.39,18.24c3.03,4.29,5.9,8.71,8.6,13.24
	c3.48,5.78,6.68,11.74,9.59,17.87c4.73,9.92,8.72,20.28,11.9,30.97c0.52,1.76,1.01,3.53,1.5,5.3c2.18,8.12,3.89,16.43,5.1,24.9
	c1.44,9.97,2.19,20.14,2.2,30.51V325.87z"/>
<g>
	<circle class="st2" cx="553.39" cy="311.41" r="10.89"/>
	<path class="st2" d="M530.5,349.75c-3.33-2.39-7.96-1.63-10.35,1.69c-2.39,3.33-1.63,7.96,1.69,10.35
		c3.33,2.39,7.96,1.63,10.35-1.69C534.59,356.77,533.83,352.14,530.5,349.75z"/>
	<path class="st2" d="M508.13,327.85c2.55-0.96,3.84-3.81,2.87-6.36c-0.96-2.55-3.81-3.84-6.36-2.87c-2.55,0.96-3.84,3.81-2.87,6.36
		C502.73,327.53,505.58,328.81,508.13,327.85z"/>
</g>
<g>
	<circle class="st2" cx="391.44" cy="425.02" r="10.89"/>
	<path class="st2" d="M368.56,463.36c-3.33-2.39-7.96-1.63-10.35,1.69c-2.39,3.33-1.63,7.96,1.69,10.35
		c3.33,2.39,7.96,1.63,10.35-1.69C372.64,470.39,371.88,465.75,368.56,463.36z"/>
	<path class="st2" d="M346.19,441.46c2.55-0.96,3.84-3.81,2.87-6.36c-0.96-2.55-3.81-3.84-6.36-2.87c-2.55,0.96-3.84,3.81-2.87,6.36
		C340.79,441.14,343.64,442.42,346.19,441.46z"/>
</g>
<g>
	<circle class="st3" cx="592.61" cy="419.7" r="10.89"/>
	<path class="st3" d="M569.72,458.04c-3.33-2.39-7.96-1.63-10.35,1.69c-2.39,3.33-1.63,7.96,1.69,10.35
		c3.33,2.39,7.96,1.63,10.35-1.69C573.81,465.07,573.05,460.43,569.72,458.04z"/>
	<path class="st3" d="M547.35,436.14c2.55-0.96,3.84-3.81,2.87-6.36c-0.96-2.55-3.81-3.84-6.36-2.87c-2.55,0.96-3.84,3.81-2.87,6.36
		C541.96,435.82,544.8,437.11,547.35,436.14z"/>
</g>
<g>
	<circle class="st3" cx="292.37" cy="161.07" r="10.89"/>
	<path class="st3" d="M269.48,199.41c-3.33-2.39-7.96-1.63-10.35,1.69c-2.39,3.33-1.63,7.96,1.69,10.35
		c3.33,2.39,7.96,1.63,10.35-1.69C273.57,206.44,272.81,201.8,269.48,199.41z"/>
	<path class="st3" d="M247.12,177.51c2.55-0.96,3.84-3.81,2.87-6.36c-0.96-2.55-3.81-3.84-6.36-2.87c-2.55,0.96-3.84,3.81-2.87,6.36
		C241.72,177.19,244.57,178.47,247.12,177.51z"/>
</g>
<g>
	<circle class="st2" cx="308.86" cy="296.01" r="10.89"/>
	<path class="st2" d="M285.97,334.35c-3.33-2.39-7.96-1.63-10.35,1.69c-2.39,3.33-1.63,7.96,1.69,10.35
		c3.33,2.39,7.96,1.63,10.35-1.69C290.06,341.38,289.3,336.74,285.97,334.35z"/>
	<path class="st2" d="M263.6,312.45c2.55-0.96,3.84-3.81,2.87-6.36c-0.96-2.55-3.81-3.84-6.36-2.87c-2.55,0.96-3.84,3.81-2.87,6.36
		C258.21,312.13,261.05,313.41,263.6,312.45z"/>
</g>
<g>
	<circle class="st2" cx="473.32" cy="189.48" r="10.89"/>
	<path class="st2" d="M450.43,227.82c-3.33-2.39-7.96-1.63-10.35,1.69c-2.39,3.33-1.63,7.96,1.69,10.35
		c3.33,2.39,7.96,1.63,10.35-1.69C454.52,234.85,453.76,230.21,450.43,227.82z"/>
	<path class="st2" d="M428.07,205.92c2.55-0.96,3.84-3.81,2.87-6.36c-0.96-2.55-3.81-3.84-6.36-2.87c-2.55,0.96-3.84,3.81-2.87,6.36
		C422.67,205.6,425.52,206.88,428.07,205.92z"/>
</g>
<path class="st4" d="M502.96,325.65v-0.11c0-10.66-1.83-20.89-5.17-30.4c-3.84-10.9-9.67-20.86-17.08-29.43
	c-0.23-0.25-0.45-0.52-0.68-0.77c-6.4-7.25-13.93-13.48-22.31-18.38c-7.11-4.19-14.83-7.44-22.99-9.58
	c-7.35-1.94-15.05-2.97-22.99-3h-0.35c-7.81,0-15.4,0.98-22.64,2.83V113.31c-7.8,0.84-15.47,2.11-22.99,3.78
	c-7.83,1.73-15.51,3.89-22.99,6.46c-7.89,2.71-15.56,5.85-22.99,9.43v192.67h0.05c0.01,10.96,1.95,21.46,5.49,31.2
	c3.96,10.88,9.92,20.8,17.45,29.31c0.25,0.3,0.52,0.59,0.78,0.88c6.4,7.06,13.9,13.13,22.21,17.91c7.12,4.1,14.84,7.27,22.99,9.34
	c7.24,1.85,14.83,2.83,22.64,2.83h0.35c7.94-0.03,15.64-1.07,22.99-3v124.4c7.8-0.81,15.47-2.06,22.99-3.69
	c7.83-1.71,15.5-3.83,22.99-6.36c7.88-2.67,15.56-5.79,22.99-9.32v-43.57v-27.5v-1.23v-20.26V325.65H502.96z M442.23,325.65
	c-0.03,7.59-2.86,14.53-7.5,19.84c-5.57,6.4-13.79,10.45-22.94,10.45h-0.05c-9.2-0.01-17.44-4.1-22.99-10.57
	c-4.58-5.29-7.36-12.18-7.39-19.72v-0.15c0-7.59,2.78-14.54,7.39-19.87c5.13-5.96,12.53-9.9,20.86-10.48
	c0.7-0.07,1.42-0.09,2.13-0.09h0.05c0.74,0,1.46,0.02,2.18,0.09c8.27,0.57,15.63,4.47,20.76,10.36c4.68,5.34,7.5,12.33,7.5,19.99
	V325.65z"/>
<line class="st5" x1="302.87" y1="305.1" x2="283.77" y2="333.25"/>
<line class="st5" x1="263.6" y1="312.45" x2="277.59" y2="334.16"/>
<g>
	<circle class="st3" cx="271.85" cy="405.41" r="10.89"/>
	<path class="st3" d="M248.96,443.76c-3.33-2.39-7.96-1.63-10.35,1.69c-2.39,3.33-1.63,7.96,1.69,10.35
		c3.33,2.39,7.96,1.63,10.35-1.69C253.05,450.78,252.29,446.15,248.96,443.76z"/>
	<path class="st3" d="M226.59,421.86c2.55-0.96,3.84-3.81,2.87-6.36c-0.96-2.55-3.81-3.84-6.36-2.87c-2.55,0.96-3.84,3.81-2.87,6.36
		C221.2,421.54,224.04,422.82,226.59,421.86z"/>
</g>
<line class="st6" x1="269.48" y1="199.41" x2="283.77" y2="167.96"/>
<line class="st6" x1="229.47" y1="415.5" x2="260.96" y2="410.47"/>
<line class="st6" x1="267.74" y1="415.5" x2="248.96" y2="443.76"/>
<path class="st5" d="M348.31,439.91l14.23,22.06c0,0,5.53-0.5,7.17,2.42l21.74-28.47"/>
<path class="st6" d="M547.35,436.14c14.72,21.29,14.72,21.29,14.72,21.29"/>
<line class="st6" x1="569.72" y1="458.04" x2="587.63" y2="429.38"/>
<line class="st5" x1="510.47" y1="326" x2="522.61" y2="349.27"/>
<line class="st5" x1="530.5" y1="349.75" x2="548.44" y2="321.1"/>
<path class="st5" d="M450.43,227.82c19.19-28.11,19.19-28.11,19.19-28.11"/>
<line class="st5" x1="440.08" y1="229.51" x2="428.07" y2="205.92"/>
<path class="st7" d="M435.58,822.32c-32.08-77.85-14.9-145.87,68.03-187.7c22.06-11.13,45.24-19.65,69.62-23.89
	c23.98-4.17,43.33-15.68,60.3-32.64c14.88-14.88,30.5-29.02,45.98-43.28c6.29-5.8,13.42-10.7,21.91-12.58
	c5.5-1.22,12.04-3.22,16.06,2.7c3.58,5.27,2.65,11.48-0.9,16.46c-20.41,28.61-34.67,62.03-64.74,83.13c-0.68,0.47-1,1.45-1.48,2.19
	c8.96-0.81,25.43-11.43,34.23-23.5c13.19-18.07,26.05-36.4,38.37-55.07c10.31-15.62,9.73-18.73-3.12-33.85
	c-2.31-2.72-1.25-4.98-0.59-7.39c5.96-21.85,6.44-44.19,6.71-66.63c0.14-11.81,2.56-23.23,12.19-31.6
	c3.47-3.01,7.38-5.72,12.08-4.32c4.88,1.45,4.53,6.49,4.67,10.26c1.4,37.59,4.39,75.25,3.19,112.77
	c-0.99,30.89-17.95,57.75-29.73,85.73c-26.02,61.77-76.09,94.01-137.78,111.77c-18.05,5.2-36.36,9.53-54.45,14.59
	c-40.41,11.31-70.45,35.95-91.84,71.74C441.91,815.14,440.92,820.51,435.58,822.32z"/>
<path class="st7" d="M182.53,630.65c-34.45-21.16-49.68-53.77-69.78-82.45c-2.3-3.28-4.6-6.74-5.93-10.46
	c-4-11.24,1.12-17.46,13-16.14c9.26,1.03,17.12,5.48,23.8,11.56c16.21,14.76,32.56,29.43,47.96,45
	c17.27,17.46,37.24,28.34,61.55,32.97c33.69,6.41,65.27,18.94,93.64,38.59c49.78,34.48,67.94,82.88,53.19,141.71
	c-2.6,10.36-6.16,20.49-9.15,30.32c-4.75,0.72-5.2-2.69-6.31-4.72c-24.02-43.97-60.97-70.17-109.46-81.57
	c-34.4-8.08-68.31-17.54-99.78-34.77c-39.74-21.76-63.87-55.81-82.64-95.68c-20.28-43.08-32.09-86.89-24.65-135.02
	c2.65-17.12,1.07-34.87,1.94-52.31c0.25-4.99-0.84-12.01,5.85-13.57c5.52-1.29,10.09,2.86,13.78,6.92
	c7.36,8.1,9.55,18.13,9.65,28.61c0.21,22.41,0.56,44.79,6.61,66.58c1.24,4.45,1.03,7.28-3.67,9.75c-8.26,4.35-8.59,11.77-5.96,19.76
	c0.42,1.28,0.68,2.69,1.42,3.76c20.58,29.48,35.63,63.38,67.04,84.19C168.85,626.47,172.67,630.51,182.53,630.65z"/>
</svg>
