<svg id="Calque_1" data-name="Calque 1" xmlns="http://www.w3.org/2000/svg" viewBox="0 0 1036.36 500"><defs><style>.cls-1,.cls-2{fill:#0071bc;}.cls-1,.cls-4,.cls-7{stroke:#0071bc;}.cls-1,.cls-3,.cls-4,.cls-6,.cls-7{stroke-miterlimit:10;}.cls-1{stroke-width:6.73px;}.cls-3,.cls-4,.cls-6,.cls-7{fill:none;}.cls-3,.cls-6{stroke:#22b573;}.cls-3,.cls-4{stroke-width:1.12px;}.cls-5{fill:#22b573;}.cls-6,.cls-7{stroke-width:0.37px;}.cls-8{fill:#213b80;}</style></defs><path class="cls-1" d="M152,137.85a98.56,98.56,0,1,0,98.56,98.55A98.55,98.55,0,0,0,152,137.85Zm.64,183.8A85.65,85.65,0,1,1,238.32,236,85.65,85.65,0,0,1,152.66,321.65Z"/><path class="cls-2" d="M235,225.48a81.93,81.93,0,0,0-1.93-10.22,78.85,78.85,0,0,0-2.53-8.12c-.29-.79-.59-1.58-.91-2.35a82,82,0,0,0-5.15-10.52c-.56-1-1.12-1.89-1.72-2.82a82.16,82.16,0,0,0-5.29-7.4c-.8-1-1.63-2-2.48-3a84.39,84.39,0,0,0-7.32-7.33l-.46-.4a83.84,83.84,0,0,0-7.78-6q-3-2.06-6.19-3.83-.78-.45-1.59-.87a83.18,83.18,0,0,0-15.55-6.32q-3.83-1.11-7.78-1.86c-2.55-.48-5.15-.84-7.78-1.09l-.9-.07H146.18l-1.21.1c-2.63.25-5.22.63-7.77,1.12s-5.24,1.14-7.78,1.89a82.26,82.26,0,0,0-7.78,2.73,83.62,83.62,0,0,0-7.78,3.66l-1.29.71c-2.22,1.25-4.39,2.6-6.49,4a81.36,81.36,0,0,0-7.77,6.06v.13h-.16a83.69,83.69,0,0,0-7.62,7.68c-.75.85-1.47,1.72-2.18,2.6a82,82,0,0,0-5.6,7.88q-.72,1.15-1.41,2.34a82,82,0,0,0-5.15,10.52c-.43,1.05-.83,2.12-1.22,3.19q-1.27,3.57-2.22,7.28a81.93,81.93,0,0,0-1.93,10.22,83.29,83.29,0,0,0-.64,10.3v0a83.47,83.47,0,0,0,.67,10.55,81.49,81.49,0,0,0,2,10.21q.92,3.58,2.15,7c.39,1.09.8,2.17,1.23,3.23a82.73,82.73,0,0,0,5.09,10.4c.47.82,1,1.63,1.46,2.42a80.6,80.6,0,0,0,5.53,7.79c.73.92,1.48,1.82,2.25,2.69a82,82,0,0,0,7.66,7.71h.12v.11a83,83,0,0,0,7.77,6.06,81.67,81.67,0,0,0,7,4.3l.8.44a83.62,83.62,0,0,0,7.78,3.66,79.54,79.54,0,0,0,7.78,2.73c2.54.75,5.14,1.39,7.78,1.89s5.14.87,7.77,1.12,5.16.37,7.78.37h.15q3.87,0,7.63-.34c2.63-.24,5.23-.6,7.78-1.09a78,78,0,0,0,7.78-1.86,83.18,83.18,0,0,0,15.55-6.32l1.11-.6c2.29-1.26,4.52-2.62,6.67-4.09a83.94,83.94,0,0,0,7.78-6l.42-.37a85.2,85.2,0,0,0,7.36-7.36c.87-1,1.73-2,2.55-3a82,82,0,0,0,5.22-7.3q.92-1.44,1.77-2.91a82.73,82.73,0,0,0,5.09-10.4c.32-.79.63-1.59.92-2.39a79.67,79.67,0,0,0,2.46-7.86,81.49,81.49,0,0,0,2-10.21,83.47,83.47,0,0,0,.67-10.55v0A83.29,83.29,0,0,0,235,225.48Zm-9.77,10.39a72.43,72.43,0,0,1-.75,10.48,71.65,71.65,0,0,1-1.72,8.34c-.17.63-.34,1.25-.53,1.87a71.11,71.11,0,0,1-3.93,10.25c-1,2.12-2.11,4.19-3.31,6.2q-1.29,2.14-2.73,4.2a73,73,0,0,1-5.05,6.44c-1.14,1.3-2.34,2.56-3.57,3.77s-2.75,2.61-4.21,3.83a72.62,72.62,0,0,1-7.78,5.71l-1.4.86a71,71,0,0,1-6.38,3.43,70.14,70.14,0,0,1-7.77,3.15,72.68,72.68,0,0,1-7.78,2.16,73.46,73.46,0,0,1-15.42,1.64h-.14a72.06,72.06,0,0,1-23.33-3.9,72.47,72.47,0,0,1-7.78-3.18c-2.09-1-4.12-2.1-6.09-3.3-.57-.34-1.13-.69-1.69-1a73.15,73.15,0,0,1-7.78-5.77c-1.35-1.15-2.66-2.34-3.92-3.59s-2.63-2.68-3.85-4.1a70.53,70.53,0,0,1-4.77-6.11q-1.61-2.28-3-4.68c-1.1-1.86-2.11-3.76-3-5.72a71.11,71.11,0,0,1-3.93-10.25c-.29-1-.57-2-.82-3-.59-2.36-1.07-4.78-1.43-7.23a72.43,72.43,0,0,1-.75-10.48v-.07a71.63,71.63,0,0,1,.74-10.32,70.49,70.49,0,0,1,1.44-7.31c.25-1,.51-1.95.79-2.91a72.61,72.61,0,0,1,4-10.47q1.35-2.86,3-5.57c1-1.7,2.06-3.35,3.2-4.95a69.75,69.75,0,0,1,4.58-5.85q2-2.26,4.13-4.37c1.17-1.15,2.39-2.25,3.64-3.32a74.46,74.46,0,0,1,7.78-5.76c.64-.41,1.29-.81,1.94-1.2q2.83-1.7,5.84-3.14a70.52,70.52,0,0,1,7.78-3.19,72.15,72.15,0,0,1,7.78-2.19,72.53,72.53,0,0,1,15.55-1.71h.14a74.14,74.14,0,0,1,7.64.4,71.24,71.24,0,0,1,7.78,1.25,71.25,71.25,0,0,1,15.55,5.3Q187,172,190,173.77q.84.49,1.65,1a72.54,72.54,0,0,1,7.78,5.7c1.35,1.14,2.67,2.33,3.93,3.56s2.62,2.65,3.85,4a72.94,72.94,0,0,1,4.87,6.17q1.53,2.17,2.91,4.47c1.17,2,2.25,4,3.24,6a72.61,72.61,0,0,1,4,10.47c.17.6.34,1.2.5,1.8a70.55,70.55,0,0,1,1.73,8.42,71.63,71.63,0,0,1,.74,10.32Z"/><circle class="cls-3" cx="200.67" cy="230.98" r="3.68"/><path class="cls-3" d="M192.93,244a2.51,2.51,0,1,0,.57,3.5A2.51,2.51,0,0,0,192.93,244Z"/><path class="cls-3" d="M185.36,236.54a1.67,1.67,0,1,0-2.15-1A1.66,1.66,0,0,0,185.36,236.54Z"/><circle class="cls-3" cx="145.89" cy="269.41" r="3.68"/><path class="cls-3" d="M138.15,282.38a2.51,2.51,0,1,0,.57,3.5A2.51,2.51,0,0,0,138.15,282.38Z"/><path class="cls-3" d="M130.58,275a1.67,1.67,0,1,0-2.15-1A1.66,1.66,0,0,0,130.58,275Z"/><circle class="cls-4" cx="213.94" cy="267.61" r="3.68"/><path class="cls-4" d="M206.2,280.58a2.51,2.51,0,1,0,.57,3.5A2.52,2.52,0,0,0,206.2,280.58Z"/><path class="cls-4" d="M198.63,273.17a1.67,1.67,0,1,0-2.15-1A1.66,1.66,0,0,0,198.63,273.17Z"/><circle class="cls-4" cx="112.38" cy="180.13" r="3.68"/><path class="cls-4" d="M104.64,193.09a2.51,2.51,0,1,0,.57,3.51A2.52,2.52,0,0,0,104.64,193.09Z"/><path class="cls-4" d="M97.07,185.69a1.67,1.67,0,1,0-2.15-1A1.67,1.67,0,0,0,97.07,185.69Z"/><circle class="cls-3" cx="117.96" cy="225.77" r="3.68"/><path class="cls-3" d="M110.21,238.74a2.51,2.51,0,1,0,.58,3.5A2.51,2.51,0,0,0,110.21,238.74Z"/><path class="cls-3" d="M102.65,231.33a1.67,1.67,0,1,0-2.15-1A1.66,1.66,0,0,0,102.65,231.33Z"/><circle class="cls-3" cx="173.59" cy="189.74" r="3.68"/><path class="cls-3" d="M165.84,202.7a2.51,2.51,0,1,0,.58,3.51A2.51,2.51,0,0,0,165.84,202.7Z"/><path class="cls-3" d="M158.28,195.3a1.67,1.67,0,1,0-2.15-1A1.67,1.67,0,0,0,158.28,195.3Z"/><path class="cls-5" d="M183.61,235.8v0a30.94,30.94,0,0,0-7.52-20.24,2.85,2.85,0,0,1-.23-.26,30.85,30.85,0,0,0-23.11-10.47h-.12a31.21,31.21,0,0,0-7.66,1V164a73.6,73.6,0,0,0-7.77,1.28,72.15,72.15,0,0,0-7.78,2.19,70.52,70.52,0,0,0-7.78,3.19V235.8h0a30.9,30.9,0,0,0,7.76,20.47,3.58,3.58,0,0,0,.26.29,31.05,31.05,0,0,0,7.52,6.06,30.88,30.88,0,0,0,15.43,4.12h.12a30.73,30.73,0,0,0,7.78-1V307.8a71.23,71.23,0,0,0,7.78-1.24,72.68,72.68,0,0,0,7.78-2.16,70.14,70.14,0,0,0,7.77-3.15V235.8Zm-20.54,0A10.31,10.31,0,0,1,152.77,246h0a10.3,10.3,0,0,1-10.28-10.24v-.05A10.29,10.29,0,0,1,152,225.48l.72,0h0c.25,0,.5,0,.74,0a10.3,10.3,0,0,1,9.56,10.27Z"/><line class="cls-6" x1="115.93" y1="228.85" x2="109.47" y2="238.37"/><line class="cls-6" x1="102.65" y1="231.33" x2="107.38" y2="238.68"/><circle class="cls-4" cx="105.44" cy="262.78" r="3.68"/><path class="cls-4" d="M97.69,275.75a2.51,2.51,0,1,0,.58,3.5A2.51,2.51,0,0,0,97.69,275.75Z"/><path class="cls-4" d="M90.13,268.34a1.67,1.67,0,1,0-2.15-1A1.66,1.66,0,0,0,90.13,268.34Z"/><line class="cls-7" x1="104.64" y1="193.09" x2="109.47" y2="182.46"/><line class="cls-7" x1="91.1" y1="266.19" x2="101.75" y2="264.49"/><line class="cls-7" x1="104.05" y1="266.19" x2="97.69" y2="275.75"/><path class="cls-6" d="M131.3,274.45l4.81,7.46s1.87-.17,2.43.81l7.35-9.63"/><path class="cls-7" d="M198.63,273.17l5,7.2"/><line class="cls-7" x1="206.2" y1="280.58" x2="212.25" y2="270.88"/><line class="cls-6" x1="186.15" y1="235.92" x2="190.26" y2="243.79"/><line class="cls-6" x1="192.93" y1="243.95" x2="199" y2="234.26"/><path class="cls-6" d="M165.84,202.7l6.5-9.5"/><line class="cls-6" x1="162.34" y1="203.28" x2="158.28" y2="195.3"/><path class="cls-8" d="M160.82,403.8c-10.85-26.33-5-49.34,23-63.49a84.56,84.56,0,0,1,23.55-8.08c8.11-1.41,14.66-5.3,20.4-11,5-5,10.31-9.82,15.55-14.64a16.38,16.38,0,0,1,7.41-4.26c1.86-.41,4.07-1.09,5.43.92a4.74,4.74,0,0,1-.3,5.56c-6.91,9.68-11.73,21-21.9,28.12-.23.16-.34.49-.5.74,3-.27,8.6-3.86,11.58-7.95,4.46-6.11,8.81-12.31,13-18.62,3.49-5.29,3.29-6.34-1-11.46-.78-.92-.42-1.68-.2-2.5,2-7.39,2.18-14.94,2.27-22.53,0-4,.86-7.86,4.12-10.69,1.17-1,2.5-1.94,4.09-1.47s1.53,2.2,1.57,3.48c.48,12.71,1.49,25.45,1.08,38.14-.33,10.45-6.07,19.54-10.06,29-8.8,20.9-25.73,31.8-46.6,37.81-6.11,1.76-12.3,3.22-18.42,4.94C181.15,379.6,171,387.93,163.75,400,163,401.37,162.63,403.19,160.82,403.8Z"/><path class="cls-8" d="M75.22,339c-11.65-7.16-16.8-18.19-23.6-27.89a15.37,15.37,0,0,1-2-3.54c-1.35-3.8.38-5.91,4.4-5.46A14.28,14.28,0,0,1,62.06,306c5.49,5,11,9.95,16.23,15.22a38.39,38.39,0,0,0,20.82,11.15,82,82,0,0,1,31.67,13.06c16.84,11.66,23,28,18,47.93-.88,3.5-2.09,6.93-3.1,10.26-1.61.24-1.76-.92-2.14-1.6-8.12-14.87-20.62-23.74-37-27.59-11.64-2.74-23.11-5.93-33.75-11.76-13.44-7.36-21.61-18.88-28-32.37C38,315.72,34,300.9,36.48,284.62c.89-5.79.36-11.8.65-17.69.08-1.69-.28-4.07,2-4.59,1.87-.44,3.41,1,4.66,2.34,2.49,2.73,3.23,6.13,3.26,9.67.07,7.58.19,15.15,2.24,22.53.42,1.5.35,2.46-1.24,3.29-2.8,1.48-2.91,4-2,6.69a4.84,4.84,0,0,0,.48,1.27c7,10,12.06,21.44,22.68,28.48C70.6,337.55,71.89,338.92,75.22,339Z"/><path class="cls-8" d="M358.67,227.37a14.66,14.66,0,0,1,2.85,9.17,13.54,13.54,0,0,1-6,11.84q-6,4.14-17.44,4.14h-30.3V193.94h28.62q10.71,0,16.45,4.1a13,13,0,0,1,5.73,11.13,14.07,14.07,0,0,1-7.78,12.89A15.44,15.44,0,0,1,358.67,227.37Zm-37.41-23.22V218h13.48c3.35,0,5.88-.59,7.61-1.76A5.86,5.86,0,0,0,345,211a5.77,5.77,0,0,0-2.6-5.15c-1.73-1.14-4.26-1.71-7.61-1.71Zm23.9,36.4a6,6,0,0,0,2.72-5.44q0-7.28-10.8-7.28H321.26v14.48h15.82C340.65,242.31,343.34,241.73,345.16,240.55Z"/><path class="cls-8" d="M371.81,193.94h13.56v47.54h29.38v11H371.81Z"/><path class="cls-8" d="M433.28,249.59a29.17,29.17,0,0,1-11.46-10.83,31.11,31.11,0,0,1,0-31,29.12,29.12,0,0,1,11.46-10.84,36.21,36.21,0,0,1,32.85,0,29.87,29.87,0,0,1,0,52.72,36.21,36.21,0,0,1-32.85,0Zm25.82-10a17.14,17.14,0,0,0,6.57-6.65,20.92,20.92,0,0,0,0-19.42,17.14,17.14,0,0,0-6.57-6.65,19.56,19.56,0,0,0-18.74,0,17.14,17.14,0,0,0-6.57,6.65,20.92,20.92,0,0,0,0,19.42,17.14,17.14,0,0,0,6.57,6.65,19.56,19.56,0,0,0,18.74,0Z"/><path class="cls-8" d="M503.84,249.64a29.1,29.1,0,0,1-11.39-10.8,31.5,31.5,0,0,1,0-31.22,29,29,0,0,1,11.39-10.79,33.73,33.73,0,0,1,16.27-3.9,34.24,34.24,0,0,1,13.77,2.68,27.62,27.62,0,0,1,10.34,7.7l-8.71,8a18.7,18.7,0,0,0-14.73-6.87,19.57,19.57,0,0,0-9.71,2.39,17,17,0,0,0-6.65,6.65,21,21,0,0,0,0,19.42,17,17,0,0,0,6.65,6.65,19.57,19.57,0,0,0,9.71,2.39A18.63,18.63,0,0,0,535.51,235l8.71,8a27.2,27.2,0,0,1-10.38,7.78A34.54,34.54,0,0,1,520,253.53,33.67,33.67,0,0,1,503.84,249.64Z"/><path class="cls-8" d="M574.68,229.51l-7.87,8.2v14.81H553.34V193.94h13.47v27.37l26-27.37h15.06l-24.27,26.11,25.69,32.47H593.43Z"/><path class="cls-8" d="M625,249.64a29.07,29.07,0,0,1-11.38-10.8,31.43,31.43,0,0,1,0-31.22A29,29,0,0,1,625,196.83a33.75,33.75,0,0,1,16.28-3.9,34.22,34.22,0,0,1,13.76,2.68,27.54,27.54,0,0,1,10.34,7.7l-8.7,8A18.72,18.72,0,0,0,642,204.48a19.55,19.55,0,0,0-9.71,2.39,16.94,16.94,0,0,0-6.65,6.65,20.92,20.92,0,0,0,0,19.42,16.94,16.94,0,0,0,6.65,6.65A19.55,19.55,0,0,0,642,242,18.64,18.64,0,0,0,656.7,235l8.7,8A27.2,27.2,0,0,1,655,250.85a34.54,34.54,0,0,1-13.81,2.68A33.67,33.67,0,0,1,625,249.64Z"/><path class="cls-8" d="M728.25,193.94v58.58H714.69v-24H688.08v24H674.52V193.94h13.56V217h26.61v-23.1Z"/><path class="cls-8" d="M780.73,240h-27.2l-5.19,12.55H734.45l26.11-58.58H774l26.19,58.58H785.92Zm-4.27-10.3-9.29-22.42-9.29,22.42Z"/><path class="cls-8" d="M806.25,193.94h13.56v58.58H806.25Z"/><path class="cls-8" d="M887.43,193.94v58.58H876.3L847.09,217v35.57H833.7V193.94h11.22L874,229.51V193.94Z"/><path class="cls-8" d="M358.67,314a14.63,14.63,0,0,1,2.85,9.16,13.55,13.55,0,0,1-6,11.85q-6,4.14-17.44,4.14h-30.3V280.52h28.62q10.71,0,16.45,4.1a13,13,0,0,1,5.73,11.13,14.25,14.25,0,0,1-2,7.61,14.41,14.41,0,0,1-5.73,5.28A15.44,15.44,0,0,1,358.67,314Zm-37.41-23.22v13.81h13.48c3.35,0,5.88-.59,7.61-1.76a5.86,5.86,0,0,0,2.6-5.19,5.77,5.77,0,0,0-2.6-5.15c-1.73-1.14-4.26-1.71-7.61-1.71Zm23.9,36.4a6,6,0,0,0,2.72-5.44q0-7.28-10.8-7.28H321.26v14.48h15.82Q342.43,328.89,345.16,327.13Z"/><path class="cls-8" d="M417.17,328.22V339.1H371.81V280.52h44.28V291.4h-30.8v12.72h27.2v10.54h-27.2v13.56Zm-19.5-64.53h14.06l-15.14,12.06H386.38Z"/><path class="cls-8" d="M481.7,280.52V339.1H470.57l-29.21-35.57V339.1H428V280.52h11.21l29.13,35.56V280.52Z"/><path class="cls-8" d="M495.59,280.52h13.56V339.1H495.59Z"/><path class="cls-8" d="M576.77,280.52V339.1H565.64l-29.21-35.57V339.1H523V280.52h11.22l29.12,35.56V280.52Z"/><path class="cls-8" d="M626.19,336.21a29,29,0,0,1-11.38-10.79,31.5,31.5,0,0,1,0-31.22,29.07,29.07,0,0,1,11.38-10.8,36.33,36.33,0,0,1,30-1.21,27.59,27.59,0,0,1,10.33,7.7l-8.7,8a18.72,18.72,0,0,0-14.73-6.86,19.57,19.57,0,0,0-9.71,2.39,16.88,16.88,0,0,0-6.65,6.65,20.92,20.92,0,0,0,0,19.42,16.94,16.94,0,0,0,6.65,6.65,19.57,19.57,0,0,0,9.71,2.38,18.62,18.62,0,0,0,14.73-6.94l8.7,8a27.13,27.13,0,0,1-10.38,7.79,34.53,34.53,0,0,1-13.81,2.67A33.58,33.58,0,0,1,626.19,336.21Z"/><path class="cls-8" d="M729.42,280.52V339.1H715.86v-24H689.25v24H675.69V280.52h13.56v23.09h26.61V280.52Z"/><path class="cls-8" d="M781.9,326.55H754.7l-5.19,12.55H735.62l26.11-58.58h13.39l26.19,58.58H787.09Zm-4.27-10.3-9.29-22.43-9.29,22.43Z"/><path class="cls-8" d="M844.75,339.1l-11.3-16.32H821V339.1H807.42V280.52h25.36a32.58,32.58,0,0,1,13.52,2.59,20.12,20.12,0,0,1,8.83,7.36,20.35,20.35,0,0,1,3.09,11.3,19.09,19.09,0,0,1-12.05,18.5l13.14,18.83Zm-3.43-44.9q-3.18-2.64-9.29-2.64H821V312h11q6.11,0,9.29-2.67a10.56,10.56,0,0,0,0-15.11Z"/><path class="cls-8" d="M868.93,280.52h13.56V339.1H868.93Z"/><path class="cls-8" d="M908.52,291.56H889.77v-11h51.05v11H922.08V339.1H908.52Z"/><path class="cls-8" d="M975.14,318.34V339.1H961.58V318.18L938.9,280.52h14.4l15.65,26,15.65-26h13.3Z"/></svg>